<?xml version="1.0" standalone="no"?>
<!DOCTYPE svg PUBLIC "-//W3C//DTD SVG 20010904//EN"
 "http://www.w3.org/TR/2001/REC-SVG-20010904/DTD/svg10.dtd">
<svg version="1.0" xmlns="http://www.w3.org/2000/svg"
 width="1000.000000pt" height="1000.000000pt" viewBox="0 0 1000.000000 1000.000000"
 preserveAspectRatio="xMidYMid meet">

<g transform="translate(0.000000,1000.000000) scale(0.100000,-0.100000)"
fill="#000000" stroke="none">
<path d="M4706 9969 c-285 -16 -623 -68 -911 -140 -200 -50 -469 -134 -484
-152 -8 -11 -10 -335 -9 -1233 l3 -1219 3073 -3 c2939 -2 3072 -1 3072 16 0
10 -6 26 -13 37 -8 11 -33 56 -57 100 -419 776 -1062 1445 -1832 1903 -853
508 -1843 748 -2842 691z"/>
<path d="M2930 9530 c-19 -11 -80 -41 -135 -68 -210 -103 -364 -192 -577 -334
-107 -72 -324 -230 -338 -247 -3 -3 -27 -24 -55 -46 -335 -268 -723 -699 -979
-1091 -43 -65 -87 -131 -97 -146 -11 -15 -19 -29 -19 -32 0 -2 -27 -50 -60
-106 -33 -56 -60 -103 -60 -105 0 -2 -14 -27 -30 -55 -17 -28 -30 -57 -30 -65
0 -13 159 -15 1219 -15 738 0 1222 4 1226 9 3 5 5 528 5 1163 1 1099 0 1153
-17 1155 -10 2 -34 -6 -53 -17z"/>
<path d="M6240 6920 l-2935 -5 -3 -3301 -2 -3301 22 -11 c31 -16 138 -52 155
-52 17 0 62 48 217 234 32 39 88 104 125 145 36 41 75 86 86 101 11 15 48 58
81 96 66 74 209 241 314 365 62 73 870 1014 969 1129 26 30 171 199 322 375
150 176 286 334 300 350 15 17 169 197 344 400 174 204 340 397 368 429 29 33
79 92 112 131 33 39 93 109 134 156 84 96 87 99 201 234 46 55 127 149 179
210 53 60 106 121 117 135 45 52 478 558 527 615 29 32 71 82 95 110 24 27 66
76 94 108 28 32 78 90 111 130 33 40 83 99 112 132 29 33 122 141 206 240 85
99 279 325 432 502 152 178 277 327 277 332 0 5 -6 10 -12 12 -7 2 -1334 2
-2948 -1z"/>
<path d="M402 6908 c-29 -35 -156 -400 -216 -618 -156 -571 -209 -1231 -146
-1810 103 -933 432 -1764 993 -2508 171 -226 506 -583 707 -752 36 -30 67 -58
70 -61 11 -13 232 -180 325 -246 106 -75 317 -209 394 -250 25 -14 62 -34 81
-45 19 -11 98 -52 175 -90 77 -38 152 -76 167 -84 14 -8 32 -12 40 -9 11 4 13
543 11 3238 -2 1777 -3 3235 -3 3240 0 4 -582 7 -1294 7 -1023 0 -1296 -3
-1304 -12z"/>
<path d="M9567 6887 c-5 -13 -105 -131 -587 -692 -118 -137 -228 -266 -245
-286 -16 -20 -124 -145 -240 -279 -115 -134 -252 -293 -304 -354 -52 -61 -115
-136 -141 -166 -255 -293 -319 -368 -345 -399 -16 -20 -84 -99 -150 -176 -163
-189 -780 -908 -1198 -1395 -45 -52 -92 -106 -103 -120 -12 -14 -82 -95 -155
-181 -74 -86 -309 -360 -524 -609 -214 -249 -406 -472 -425 -495 -29 -36 -470
-549 -692 -805 -79 -92 -319 -373 -492 -574 -70 -83 -134 -155 -142 -159 -20
-11 -17 -35 5 -47 40 -21 371 -81 601 -109 375 -46 880 -40 1250 14 213 31
481 86 635 130 33 10 81 23 107 30 135 38 426 145 593 218 50 22 387 189 415
206 8 6 56 33 105 62 629 367 1215 923 1620 1539 288 438 520 941 640 1390 10
36 23 85 31 110 87 297 164 884 164 1255 0 371 -77 958 -164 1255 -8 25 -22
74 -31 110 -25 91 -107 338 -148 445 -26 67 -40 91 -55 93 -11 2 -22 -3 -25
-11z"/>
</g>
</svg>
