<?xml version="1.0" standalone="no"?>
<!DOCTYPE svg PUBLIC "-//W3C//DTD SVG 20010904//EN"
 "http://www.w3.org/TR/2001/REC-SVG-20010904/DTD/svg10.dtd">
<svg version="1.0" xmlns="http://www.w3.org/2000/svg"
 width="1000.000000pt" height="1000.000000pt" viewBox="0 0 1000.000000 1000.000000"
 preserveAspectRatio="xMidYMid meet">

<g transform="translate(0.000000,1000.000000) scale(0.100000,-0.100000)"
fill="#000000" stroke="none">
<path d="M4775 7889 c-217 -18 -479 -71 -675 -136 l-85 -28 0 -715 0 -715
1788 -3 c1477 -2 1787 0 1787 11 0 7 -31 68 -69 134 -370 645 -971 1122 -1686
1338 -141 43 -370 90 -510 105 -144 15 -422 20 -550 9z"/>
<path d="M3705 7592 c-305 -158 -516 -312 -751 -546 -152 -152 -263 -286 -367
-442 -73 -111 -177 -290 -177 -304 0 -7 256 -9 713 -8 l712 3 3 678 c2 538 0
677 -10 676 -7 0 -62 -26 -123 -57z"/>
<path d="M2306 6067 c-43 -96 -115 -336 -145 -480 -49 -240 -56 -312 -56 -602
1 -305 16 -439 81 -698 183 -726 635 -1350 1269 -1751 92 -58 355 -196 374
-196 8 0 10 552 9 1888 l-3 1887 -753 3 -753 2 -23 -53z"/>
<path d="M4017 6113 c-4 -3 -7 -870 -7 -1925 l0 -1919 46 -19 c25 -11 51 -20
57 -20 7 1 30 22 53 48 22 26 474 553 1005 1172 531 619 1187 1384 1459 1700
706 823 815 950 818 961 4 10 -3421 13 -3431 2z"/>
<path d="M7579 5997 c-47 -56 -306 -358 -575 -672 -269 -313 -694 -808 -945
-1100 -663 -772 -1022 -1191 -1399 -1629 -365 -423 -357 -413 -349 -420 8 -8
200 -45 319 -62 159 -22 443 -29 600 -15 715 66 1331 351 1825 846 497 496
781 1115 842 1836 15 173 15 222 5 376 -21 296 -74 554 -166 817 -26 73 -48
122 -57 123 -8 1 -53 -44 -100 -100z"/>
</g>
</svg>
